<?xml version="1.0" encoding="utf-8"?>
<!-- Generator: Adobe Illustrator 15.0.0, SVG Export Plug-In . SVG Version: 6.00 Build 0)  -->
<!DOCTYPE svg PUBLIC "-//W3C//DTD SVG 1.1//EN" "http://www.w3.org/Graphics/SVG/1.1/DTD/svg11.dtd">
<svg version="1.1" id="Layer_2" xmlns="http://www.w3.org/2000/svg" xmlns:xlink="http://www.w3.org/1999/xlink" x="0px" y="0px"
	 width="205.541px" height="54.081px" viewBox="0 0 205.541 54.081" enable-background="new 0 0 205.541 54.081"
	 xml:space="preserve">
<polygon fill="none" stroke="#000000" points="41.87,39.484 39.004,34.598 25.938,3.373 24.97,3.373 11.766,34.266 8.637,39.664 
	5.592,40.743 5.592,41.768 17.413,41.768 17.413,40.743 13.883,39.899 13.066,38.39 14.008,35.124 16.554,29.2 31.087,29.2 
	33.357,34.598 34.465,38.446 33.676,39.996 30.645,40.743 30.645,41.768 45.455,41.768 45.455,40.743 "/>
<polygon fill="none" stroke="#000000" points="68.901,38.681 68.126,38.875 67.393,38.598 66.936,37.504 66.797,33.062 
	66.797,24.452 66.299,19.58 63.891,16.895 58.354,15.76 51.517,17.753 49.081,22.127 49.731,24.092 51.406,24.812 53.109,24.12 
	53.759,22.155 53.704,20.549 54.756,18.39 57.524,17.449 61.026,18.86 62.23,24.064 62.23,25.061 52.887,29.103 48.942,32.646 
	48.112,35.857 49.814,40.591 54.147,42.39 57.33,41.698 62.23,38.21 63.061,41.421 65.22,42.362 71.144,38.21 71.144,36.66 "/>
<polygon fill="none" stroke="#000000" stroke-miterlimit="10" points="103.283,25.407 97.441,22.75 102.507,19.442 104.224,14.39 
	102.037,8.563 95.698,5.033 88.417,4.369 72.196,4.369 72.196,5.393 73.607,5.393 76.818,6.611 77.621,11.013 77.621,35.262 
	76.984,39.387 73.607,40.881 72.196,40.881 72.196,41.906 89.912,41.906 99.338,40.729 104.196,36.992 105.968,31.636 "/>
<polygon fill="none" stroke="#000000" points="132.542,19.096 125.732,15.76 117.788,20.881 117.788,2.5 116.542,2.5 108.93,5.601 
	109.317,6.57 111.255,6.126 112.362,6.486 113.013,7.843 113.22,13.158 113.22,39.428 117.885,41.836 122.383,42.639 
	130.964,39.096 135.449,28.217 "/>
<polygon fill="none" stroke="#000000" points="172.404,32.508 166.26,38.722 159.81,40.287 152.321,38.293 147.408,32.563 
	145.774,23.732 147.505,13.407 152.252,7.358 159.006,5.462 166.646,7.981 171.547,16.23 172.404,16.23 171.547,3.469 
	170.578,3.469 169.554,5.545 168.252,6.071 166.592,5.462 158.563,3.469 148.917,6.058 141.982,13.352 139.463,23.677 
	143.283,35.802 157.733,42.722 166.675,40.397 173.263,33.062 "/>
<polygon fill="none" stroke="#000000" points="197.734,31.843 194.772,36.466 189.9,38.321 183.879,34.847 181.65,26.833 
	183.893,19.663 188.35,17.615 191.035,18.445 192.156,20.937 192.779,23.151 195.242,24.203 197.139,23.553 197.817,21.85 
	195.409,17.739 189.264,15.76 180.724,19.497 177.166,29.213 180.377,39.013 187.907,42.639 194.522,39.94 198.537,32.231 "/>
<polygon fill="none" stroke="#000000" points="23.961,12.433 17.428,27.603 30.328,27.603 "/>
<polygon fill="none" stroke="#000000" points="56.905,29.145 53.777,31.691 52.836,34.598 54.026,37.906 56.767,39.221 
	62.303,36.452 62.303,26.792 "/>
<polygon fill="none" stroke="#000000" stroke-miterlimit="10" points="98.238,27.898 94.362,24.715 87.719,23.553 84.785,23.608 
	82.819,23.802 82.819,39.193 89.158,39.94 96.798,37.684 99.428,32.106 "/>
<polygon fill="none" stroke="#000000" stroke-miterlimit="10" points="95.636,8.647 87.802,6.322 82.819,6.931 82.819,21.354 
	85.158,21.644 88.051,21.741 94.127,20.869 97.241,18.198 98.321,14.267 "/>
<polygon fill="none" stroke="#000000" points="128.53,22.348 123.588,19.732 120.654,20.48 117.831,22.694 117.831,37.864 
	120.751,39.954 123.838,40.66 128.53,37.892 130.703,29.836 "/>
</svg>
