<?xml version="1.0" encoding="utf-8"?>
<!-- Generator: Adobe Illustrator 15.0.0, SVG Export Plug-In . SVG Version: 6.00 Build 0)  -->
<!DOCTYPE svg PUBLIC "-//W3C//DTD SVG 1.1//EN" "http://www.w3.org/Graphics/SVG/1.1/DTD/svg11.dtd">
<svg version="1.1" id="Layer_1" xmlns="http://www.w3.org/2000/svg" xmlns:xlink="http://www.w3.org/1999/xlink" x="0px" y="0px"
	 width="141.732px" height="141.731px" viewBox="0 0 141.732 141.731" enable-background="new 0 0 141.732 141.731"
	 xml:space="preserve">
<polygon fill="none" stroke="#000000" stroke-miterlimit="10" points="64.959,104.365 53.858,100.324 44.808,92.73 38.901,82.5 
	36.85,70.866 38.901,59.231 44.808,49.001 53.858,41.407 64.959,37.367 76.772,37.367 87.874,41.407 96.923,49.001 102.83,59.231 
	104.882,70.866 102.83,82.5 96.923,92.73 87.874,100.324 76.772,104.365 "/>
<polygon fill="none" stroke="#000000" stroke-miterlimit="10" points="70.866,141.731 35.433,141.731 0,141.731 0,106.299 0,70.866 
	0,35.433 0,0 35.433,0 70.866,0 106.299,0 141.732,0 141.732,35.433 141.732,70.866 141.732,106.299 141.732,141.731 
	106.299,141.731 "/>
</svg>
